<svg width="40" height="68" viewBox="0 0 40 68" fill="none" xmlns="http://www.w3.org/2000/svg">
<path d="M37.5 54C34 68 18.2773 66.693 14.0015 63.0388C0.50007 51.5 0.000377655 26 10.0011 10C15.2466 1.6078 29.3976 1.89724 34.5004 7L37.5 54Z" fill="url(#paint0_linear_72_993)"/>
<path d="M35.5474 1L34.5004 7M34.5004 7C29.3976 1.89724 15.2466 1.6078 10.0011 10C0.000377655 26 0.50007 51.5 14.0015 63.0388C18.2773 66.693 34 68 37.5 54L34.5004 7Z" stroke="url(#paint1_linear_72_993)" stroke-width="4.29706"/>
<mask id="path-3-outside-1_72_993" maskUnits="userSpaceOnUse" x="2.77342" y="3.98477" width="37.0766" height="62.6188" fill="black">
<rect fill="white" x="2.77342" y="3.98477" width="37.0766" height="62.6188"/>
<path d="M22.9449 63.2368C20.7115 63.3187 18.5965 62.797 16.5999 61.6714C14.6026 60.5029 12.8529 58.7499 11.3509 56.4124C9.8481 54.0319 8.63595 51.0662 7.71442 47.5151C6.83586 43.9634 6.35533 39.8245 6.27284 35.0984C6.19034 30.3724 6.52726 26.2837 7.28358 22.8323C8.08287 19.3802 9.17192 16.5247 10.5507 14.2658C11.9725 12.0062 13.6622 10.322 15.6198 9.21344C17.5774 8.10484 19.6947 7.53067 21.9718 7.49092C23.7334 7.46018 25.3705 7.68946 26.8832 8.17878C28.4382 8.62439 29.8714 9.48041 31.1828 10.7468L32.1543 7.31319L33.6366 7.28732L33.5311 23.4056L31.92 23.4337C31.7551 21.3737 31.3354 19.49 30.661 17.7827C29.9858 16.0324 29.1643 14.5211 28.1966 13.2486C27.2718 11.9755 26.2664 11.0046 25.1803 10.3359C24.0942 9.6672 23.036 9.36334 22.0056 9.4243C20.4182 9.58095 19.0772 10.3135 17.9826 11.6219C16.8873 12.8874 16.0158 14.6646 15.3681 16.9537C14.7627 19.1991 14.3365 21.8711 14.0898 24.9698C13.8423 28.0255 13.75 31.3578 13.813 34.9668C13.876 38.5758 14.1068 41.9455 14.5052 45.0758C14.9459 48.1625 15.5302 50.8599 16.2581 53.1679C16.986 55.476 17.8987 57.2866 18.996 58.5997C20.1356 59.8691 21.4361 60.5126 22.8976 60.53C24.231 60.5927 25.474 60.3991 26.6265 59.9492C27.8213 59.4556 28.9026 58.6202 29.8705 57.4429C30.8807 56.2219 31.777 54.6376 32.5596 52.69C33.3414 50.6994 34.0072 48.2166 34.5569 45.2416L36.6192 45.2056C36.3152 47.4887 35.8594 49.6884 35.2517 51.8049C34.644 53.9214 33.7962 55.8272 32.7084 57.5223C31.6628 59.1737 30.3327 60.5292 28.718 61.5888C27.1456 62.6048 25.2212 63.1541 22.9449 63.2368Z"/>
</mask>
<path d="M22.9449 63.2368C20.7115 63.3187 18.5965 62.797 16.5999 61.6714C14.6026 60.5029 12.8529 58.7499 11.3509 56.4124C9.8481 54.0319 8.63595 51.0662 7.71442 47.5151C6.83586 43.9634 6.35533 39.8245 6.27284 35.0984C6.19034 30.3724 6.52726 26.2837 7.28358 22.8323C8.08287 19.3802 9.17192 16.5247 10.5507 14.2658C11.9725 12.0062 13.6622 10.322 15.6198 9.21344C17.5774 8.10484 19.6947 7.53067 21.9718 7.49092C23.7334 7.46018 25.3705 7.68946 26.8832 8.17878C28.4382 8.62439 29.8714 9.48041 31.1828 10.7468L32.1543 7.31319L33.6366 7.28732L33.5311 23.4056L31.92 23.4337C31.7551 21.3737 31.3354 19.49 30.661 17.7827C29.9858 16.0324 29.1643 14.5211 28.1966 13.2486C27.2718 11.9755 26.2664 11.0046 25.1803 10.3359C24.0942 9.6672 23.036 9.36334 22.0056 9.4243C20.4182 9.58095 19.0772 10.3135 17.9826 11.6219C16.8873 12.8874 16.0158 14.6646 15.3681 16.9537C14.7627 19.1991 14.3365 21.8711 14.0898 24.9698C13.8423 28.0255 13.75 31.3578 13.813 34.9668C13.876 38.5758 14.1068 41.9455 14.5052 45.0758C14.9459 48.1625 15.5302 50.8599 16.2581 53.1679C16.986 55.476 17.8987 57.2866 18.996 58.5997C20.1356 59.8691 21.4361 60.5126 22.8976 60.53C24.231 60.5927 25.474 60.3991 26.6265 59.9492C27.8213 59.4556 28.9026 58.6202 29.8705 57.4429C30.8807 56.2219 31.777 54.6376 32.5596 52.69C33.3414 50.6994 34.0072 48.2166 34.5569 45.2416L36.6192 45.2056C36.3152 47.4887 35.8594 49.6884 35.2517 51.8049C34.644 53.9214 33.7962 55.8272 32.7084 57.5223C31.6628 59.1737 30.3327 60.5292 28.718 61.5888C27.1456 62.6048 25.2212 63.1541 22.9449 63.2368Z" fill="#111015"/>
<path d="M22.9449 63.2368L22.8587 60.866L22.8579 60.866L22.9449 63.2368ZM16.5999 61.6714L15.402 63.7191L15.4184 63.7287L15.4349 63.738L16.5999 61.6714ZM11.3509 56.4124L9.34483 57.6788L9.34991 57.6868L9.35506 57.6948L11.3509 56.4124ZM7.71442 47.5151L5.41149 48.0848L5.41475 48.0979L5.41815 48.111L7.71442 47.5151ZM7.28358 22.8323L4.97239 22.2972L4.96923 22.3108L4.96623 22.3245L7.28358 22.8323ZM10.5507 14.2658L8.54281 13.0024L8.53422 13.016L8.52582 13.0298L10.5507 14.2658ZM15.6198 9.21344L14.4508 7.14914L14.4508 7.14914L15.6198 9.21344ZM26.8832 8.17878L26.1531 10.436L26.1912 10.4483L26.2297 10.4593L26.8832 8.17878ZM31.1828 10.7468L29.5348 12.4533L32.3863 15.207L33.4655 11.3927L31.1828 10.7468ZM32.1543 7.31319L32.1129 4.94122L30.3513 4.97196L29.8716 6.66731L32.1543 7.31319ZM33.6366 7.28732L36.0089 7.30284L36.0248 4.87293L33.5952 4.91534L33.6366 7.28732ZM33.5311 23.4056L33.5725 25.7776L35.8883 25.7371L35.9034 23.4211L33.5311 23.4056ZM31.92 23.4337L29.5552 23.623L29.733 25.8446L31.9614 25.8057L31.92 23.4337ZM30.661 17.7827L28.4476 18.6366L28.451 18.6455L28.4546 18.6543L30.661 17.7827ZM28.1966 13.2486L26.2771 14.6428L26.2925 14.6639L26.3083 14.6847L28.1966 13.2486ZM25.1803 10.3359L26.4241 8.31571L26.4241 8.31571L25.1803 10.3359ZM22.0056 9.4243L21.8655 7.05611L21.819 7.05886L21.7726 7.06344L22.0056 9.4243ZM17.9826 11.6219L19.7763 13.1745L19.7894 13.1594L19.8022 13.1441L17.9826 11.6219ZM15.3681 16.9537L13.0854 16.3078L13.0814 16.3219L13.0776 16.3361L15.3681 16.9537ZM14.0898 24.9698L16.4544 25.1613L16.4546 25.1581L14.0898 24.9698ZM14.5052 45.0758L12.1519 45.3754L12.1541 45.3933L12.1567 45.4111L14.5052 45.0758ZM18.996 58.5997L17.1756 60.121L17.2026 60.1532L17.2306 60.1845L18.996 58.5997ZM22.8976 60.53L23.009 58.1603L22.9675 58.1584L22.926 58.1579L22.8976 60.53ZM26.6265 59.9492L27.4892 62.1592L27.5109 62.1507L27.5324 62.1418L26.6265 59.9492ZM29.8705 57.4429L28.0426 55.9307L28.038 55.9363L29.8705 57.4429ZM32.5596 52.69L34.7609 53.5745L34.7643 53.5659L34.7677 53.5572L32.5596 52.69ZM34.5569 45.2416L34.5155 42.8696L32.5765 42.9034L32.2241 44.8105L34.5569 45.2416ZM36.6192 45.2056L38.9708 45.5186L39.3347 42.7855L36.5778 42.8336L36.6192 45.2056ZM35.2517 51.8049L32.9715 51.1502L32.9715 51.1502L35.2517 51.8049ZM32.7084 57.5223L30.7118 56.241L30.7079 56.2471L30.7041 56.2532L32.7084 57.5223ZM28.718 61.5888L30.0054 63.5815L30.0126 63.5769L30.0197 63.5722L28.718 61.5888ZM22.8579 60.866C21.0735 60.9315 19.3905 60.5212 17.7649 59.6048L15.4349 63.738C17.8026 65.0727 20.3495 65.706 23.0319 65.6075L22.8579 60.866ZM17.7979 59.6238C16.1816 58.6782 14.6869 57.2156 13.3467 55.1299L9.35506 57.6948C11.0189 60.2842 13.0236 62.3277 15.402 63.7191L17.7979 59.6238ZM13.3569 55.146C12.0177 53.0245 10.8883 50.3008 10.0107 46.9192L5.41815 48.111C6.38364 51.8315 7.67853 55.0393 9.34483 57.6788L13.3569 55.146ZM10.0173 46.9455C9.19186 43.6083 8.72505 39.6537 8.64481 35.057L3.90086 35.1398C3.98562 39.9953 4.47986 44.3185 5.41149 48.0848L10.0173 46.9455ZM8.64481 35.057C8.56453 30.4578 8.89482 26.5623 9.60093 23.3401L4.96623 22.3245C4.15969 26.005 3.81616 30.287 3.90086 35.1398L8.64481 35.057ZM9.59477 23.3674C10.3549 20.0843 11.3654 17.4845 12.5756 15.5018L8.52582 13.0298C6.97841 15.5649 5.81081 18.676 4.97239 22.2972L9.59477 23.3674ZM12.5587 15.5292C13.8104 13.5399 15.2313 12.1598 16.7888 11.2777L14.4508 7.14914C12.0931 8.4843 10.1347 10.4724 8.54281 13.0024L12.5587 15.5292ZM16.7888 11.2777C18.3977 10.3666 20.1267 9.89583 22.0132 9.8629L21.9304 5.11895C19.2628 5.16552 16.7571 5.84305 14.4508 7.14914L16.7888 11.2777ZM22.0132 9.8629C23.5411 9.83623 24.9149 10.0354 26.1531 10.436L27.6134 5.92159C25.8261 5.34349 23.9256 5.08413 21.9304 5.11895L22.0132 9.8629ZM26.2297 10.4593C27.3659 10.7849 28.4669 11.4221 29.5348 12.4533L32.8308 9.04031C31.2759 7.53875 29.5105 6.46386 27.5368 5.89824L26.2297 10.4593ZM33.4655 11.3927L34.437 7.95906L29.8716 6.66731L28.9001 10.101L33.4655 11.3927ZM32.1957 9.68516L33.678 9.65929L33.5952 4.91534L32.1129 4.94122L32.1957 9.68516ZM31.2643 7.2718L31.1588 23.3901L35.9034 23.4211L36.0089 7.30284L31.2643 7.2718ZM33.4897 21.0336L31.8786 21.0617L31.9614 25.8057L33.5725 25.7776L33.4897 21.0336ZM34.2848 23.2444C34.1035 20.9794 33.6382 18.8622 32.8674 16.9111L28.4546 18.6543C29.0327 20.1178 29.4067 21.768 29.5552 23.623L34.2848 23.2444ZM32.8743 16.9289C32.1323 15.0053 31.2088 13.2905 30.0849 11.8126L26.3083 14.6847C27.1197 15.7517 27.8393 17.0596 28.4476 18.6366L32.8743 16.9289ZM30.116 11.8545C29.0504 10.3874 27.828 9.18008 26.4241 8.31571L23.9366 12.356C24.7048 12.829 25.4933 13.5636 26.2771 14.6428L30.116 11.8545ZM26.4241 8.31571C25.0221 7.45257 23.4861 6.96023 21.8655 7.05611L22.1457 11.7925C22.5858 11.7665 23.1663 11.8818 23.9366 12.356L26.4241 8.31571ZM21.7726 7.06344C19.5211 7.28561 17.6257 8.35128 16.163 10.0997L19.8022 13.1441C20.5287 12.2757 21.3153 11.8763 22.2386 11.7852L21.7726 7.06344ZM16.1889 10.0693C14.7912 11.6841 13.7906 13.8155 13.0854 16.3078L17.6508 17.5996C18.241 15.5138 18.9834 14.0906 19.7763 13.1745L16.1889 10.0693ZM13.0776 16.3361C12.424 18.7598 11.9797 21.5828 11.7249 24.7815L16.4546 25.1581C16.6934 22.1594 17.1013 19.6384 17.6586 17.5714L13.0776 16.3361ZM11.7252 24.7783C11.4704 27.9236 11.3769 31.3347 11.4411 35.0082L16.185 34.9254C16.1231 31.3809 16.2141 28.1274 16.4544 25.1613L11.7252 24.7783ZM11.4411 35.0082C11.5053 38.6915 11.7411 42.1482 12.1519 45.3754L16.8586 44.7763C16.4724 41.7427 16.2467 38.4601 16.185 34.9254L11.4411 35.0082ZM12.1567 45.4111C12.6107 48.5915 13.2195 51.4206 13.9956 53.8815L18.5206 52.4544C17.8409 50.2992 17.281 47.7335 16.8537 44.7405L12.1567 45.4111ZM13.9956 53.8815C14.781 56.3718 15.8154 58.4933 17.1756 60.121L20.8164 57.0785C19.9819 56.0798 19.191 54.5802 18.5206 52.4544L13.9956 53.8815ZM17.2306 60.1845C18.7325 61.8575 20.6318 62.8755 22.8693 62.9022L22.926 58.1579C22.2405 58.1497 21.5386 57.8808 20.7614 57.0149L17.2306 60.1845ZM22.7862 62.8998C24.4254 62.9768 26.0029 62.7393 27.4892 62.1592L25.7639 57.7393C24.9451 58.0589 24.0367 58.2086 23.009 58.1603L22.7862 62.8998ZM27.5324 62.1418C29.1472 61.4747 30.5317 60.3742 31.703 58.9495L28.038 55.9363C27.2735 56.8661 26.4954 57.4366 25.7207 57.7567L27.5324 62.1418ZM31.6984 58.9551C32.9059 57.4955 33.9147 55.6803 34.7609 53.5745L30.3583 51.8055C29.6393 53.595 28.8554 54.9483 28.0426 55.9307L31.6984 58.9551ZM34.7677 53.5572C35.6225 51.381 36.3228 48.7407 36.8898 45.6726L32.2241 44.8105C31.6916 47.6924 31.0604 50.0178 30.3515 51.8227L34.7677 53.5572ZM34.5983 47.6135L36.6606 47.5775L36.5778 42.8336L34.5155 42.8696L34.5983 47.6135ZM34.2676 44.8925C33.9783 47.0654 33.5456 49.1507 32.9715 51.1502L37.5319 52.4597C38.1732 50.2262 38.6522 47.9119 38.9708 45.5186L34.2676 44.8925ZM32.9715 51.1502C32.4215 53.0657 31.6641 54.7571 30.7118 56.241L34.705 58.8036C35.9283 56.8974 36.8665 54.7772 37.5319 52.4597L32.9715 51.1502ZM30.7041 56.2532C29.8369 57.6227 28.7451 58.7335 27.4164 59.6055L30.0197 63.5722C31.9202 62.3249 33.4887 60.7246 34.7127 58.7914L30.7041 56.2532ZM27.4306 59.5962C26.2878 60.3346 24.8005 60.7955 22.8587 60.866L23.031 65.6076C25.642 65.5127 28.0035 64.8749 30.0054 63.5815L27.4306 59.5962Z" fill="url(#paint2_linear_72_993)" mask="url(#path-3-outside-1_72_993)"/>
<defs>
<linearGradient id="paint0_linear_72_993" x1="20.3035" y1="1" x2="20.3035" y2="65.4766" gradientUnits="userSpaceOnUse">
<stop stop-color="#6FDBB5"/>
<stop offset="1" stop-color="#45A176"/>
</linearGradient>
<linearGradient id="paint1_linear_72_993" x1="20.3035" y1="1" x2="20.3035" y2="65.4766" gradientUnits="userSpaceOnUse">
<stop stop-color="#6FDBB5"/>
<stop offset="1" stop-color="#45A176"/>
</linearGradient>
<linearGradient id="paint2_linear_72_993" x1="21.4975" y1="17.2882" x2="22.2828" y2="62.2814" gradientUnits="userSpaceOnUse">
<stop stop-color="#6FDBB5"/>
<stop offset="1" stop-color="#45A176"/>
</linearGradient>
</defs>
</svg>
