<svg width="69" height="100" viewBox="0 0 69 100" fill="none" xmlns="http://www.w3.org/2000/svg">
<path d="M25.5 89.5L28.7599 29.0743V28L64.2107 30.4171L62 91.3816L25.5 89.5Z" fill="url(#paint0_linear_72_990)" stroke="url(#paint1_linear_72_990)" stroke-width="4.29706"/>
<mask id="path-2-inside-1_72_990" fill="white">
<path d="M64.5013 31.0173L61.3605 90.9477L45.7764 90.1309L47.0956 64.9594L42.4314 64.715L41.1122 89.8865L25.5281 89.0698L28.6689 29.1394L44.2531 29.9561L43.1298 51.3889L47.7939 51.6333L48.9172 30.2005L64.5013 31.0173Z"/>
</mask>
<path d="M64.5013 31.0173L61.3605 90.9477L45.7764 90.1309L47.0956 64.9594L42.4314 64.715L41.1122 89.8865L25.5281 89.0698L28.6689 29.1394L44.2531 29.9561L43.1298 51.3889L47.7939 51.6333L48.9172 30.2005L64.5013 31.0173Z" fill="#111015"/>
<path d="M64.5013 31.0173L66.6469 31.1297L66.7594 28.9841L64.6138 28.8717L64.5013 31.0173ZM61.3605 90.9477L61.2481 93.0932L63.3936 93.2057L63.5061 91.0601L61.3605 90.9477ZM45.7764 90.1309L43.6308 90.0185L43.5183 92.1641L45.6639 92.2765L45.7764 90.1309ZM47.0956 64.9594L49.2411 65.0719L49.3536 62.9263L47.208 62.8138L47.0956 64.9594ZM42.4314 64.715L42.5439 62.5694L40.3983 62.457L40.2858 64.6025L42.4314 64.715ZM41.1122 89.8865L40.9998 92.0321L43.1454 92.1445L43.2578 89.9989L41.1122 89.8865ZM25.5281 89.0698L23.3825 88.9573L23.2701 91.1029L25.4157 91.2154L25.5281 89.0698ZM28.6689 29.1394L28.7814 26.9938L26.6358 26.8813L26.5234 29.0269L28.6689 29.1394ZM44.2531 29.9561L46.3986 30.0685L46.5111 27.923L44.3655 27.8105L44.2531 29.9561ZM43.1298 51.3889L40.9842 51.2764L40.8718 53.422L43.0174 53.5345L43.1298 51.3889ZM47.7939 51.6333L47.6815 53.7789L49.8271 53.8914L49.9395 51.7458L47.7939 51.6333ZM48.9172 30.2005L49.0296 28.0549L46.8841 27.9425L46.7716 30.0881L48.9172 30.2005ZM62.3557 30.9048L59.2149 90.8352L63.5061 91.0601L66.6469 31.1297L62.3557 30.9048ZM61.4729 88.8021L45.8888 87.9853L45.6639 92.2765L61.2481 93.0932L61.4729 88.8021ZM47.922 90.2434L49.2411 65.0719L44.95 64.847L43.6308 90.0185L47.922 90.2434ZM47.208 62.8138L42.5439 62.5694L42.319 66.8606L46.9831 67.105L47.208 62.8138ZM40.2858 64.6025L38.9667 89.7741L43.2578 89.9989L44.577 64.8274L40.2858 64.6025ZM41.2247 87.7409L25.6406 86.9242L25.4157 91.2154L40.9998 92.0321L41.2247 87.7409ZM27.6737 89.1822L30.8145 29.2518L26.5234 29.0269L23.3825 88.9573L27.6737 89.1822ZM28.5565 31.2849L44.1406 32.1017L44.3655 27.8105L28.7814 26.9938L28.5565 31.2849ZM42.1075 29.8436L40.9842 51.2764L45.2754 51.5013L46.3986 30.0685L42.1075 29.8436ZM43.0174 53.5345L47.6815 53.7789L47.9064 49.4877L43.2423 49.2433L43.0174 53.5345ZM49.9395 51.7458L51.0628 30.313L46.7716 30.0881L45.6484 51.5209L49.9395 51.7458ZM48.8047 32.3461L64.3889 33.1628L64.6138 28.8717L49.0296 28.0549L48.8047 32.3461Z" fill="url(#paint2_linear_72_990)" mask="url(#path-2-inside-1_72_990)"/>
<path d="M21.6654 18.5172C16.0554 12.888 8.5575 10.2687 3 11.1489" stroke="url(#paint3_linear_72_990)" stroke-width="5.37132" stroke-linecap="round"/>
<path d="M27.5714 14.7657C26.7492 8.91477 24.518 4.61784 20.1923 2.78492" stroke="url(#paint4_linear_72_990)" stroke-width="3.75993" stroke-linecap="round"/>
<defs>
<linearGradient id="paint0_linear_72_990" x1="44.8553" y1="28" x2="44.8553" y2="91.3816" gradientUnits="userSpaceOnUse">
<stop stop-color="#6FDBB5"/>
<stop offset="1" stop-color="#45A176"/>
</linearGradient>
<linearGradient id="paint1_linear_72_990" x1="44.8553" y1="28" x2="44.8553" y2="91.3816" gradientUnits="userSpaceOnUse">
<stop stop-color="#6FDBB5"/>
<stop offset="1" stop-color="#45A176"/>
</linearGradient>
<linearGradient id="paint2_linear_72_990" x1="47.4481" y1="22.1252" x2="43.4705" y2="98.0211" gradientUnits="userSpaceOnUse">
<stop stop-color="#6FDBB5"/>
<stop offset="1" stop-color="#45A176"/>
</linearGradient>
<linearGradient id="paint3_linear_72_990" x1="11.5351" y1="9.7971" x2="13.1303" y2="19.869" gradientUnits="userSpaceOnUse">
<stop stop-color="#6FDBB5"/>
<stop offset="1" stop-color="#45A176"/>
</linearGradient>
<linearGradient id="paint4_linear_72_990" x1="22.9848" y1="2.39246" x2="24.7789" y2="15.1582" gradientUnits="userSpaceOnUse">
<stop stop-color="#6FDBB5"/>
<stop offset="1" stop-color="#45A176"/>
</linearGradient>
</defs>
</svg>
