<svg width="53" height="86" viewBox="0 0 53 86" fill="none" xmlns="http://www.w3.org/2000/svg">
<path d="M50 76L10 81.5L3 23.5469L22.6053 21.1298V23.5469C28.5138 13.8785 41.6735 18.4442 44.3592 25.1583L50 76Z" fill="url(#paint0_linear_72_992)" stroke="url(#paint1_linear_72_992)" stroke-width="4.29706"/>
<mask id="path-2-outside-1_72_992" maskUnits="userSpaceOnUse" x="2.07178" y="16.995" width="48.8772" height="63.6787" fill="black">
<rect fill="white" x="2.07178" y="16.995" width="48.8772" height="63.6787"/>
<path d="M21.3942 23.5643L21.7058 28.3617C22.6179 26.3208 23.8364 24.731 25.3613 23.5925C26.909 22.4248 28.7632 21.7083 30.9239 21.443C33.6312 21.1106 35.9222 21.4767 37.7969 22.5413C39.6716 23.6059 40.9761 25.084 41.7104 26.9756C42.4416 28.8412 43.0852 32.0388 43.6413 36.5683L48.1002 72.8825L32.325 74.8194L27.9189 38.9348C27.481 35.3684 27.097 33.2092 26.7668 32.457C26.4366 31.7048 25.7379 31.3942 24.6706 31.5253C23.5512 31.6627 22.9043 32.2046 22.7298 33.1509C22.5521 34.0711 22.703 36.4836 23.1825 40.3883L27.4831 75.414L11.7079 77.3509L5.34567 25.5349L21.3942 23.5643Z"/>
</mask>
<path d="M21.3942 23.5643L21.7058 28.3617C22.6179 26.3208 23.8364 24.731 25.3613 23.5925C26.909 22.4248 28.7632 21.7083 30.9239 21.443C33.6312 21.1106 35.9222 21.4767 37.7969 22.5413C39.6716 23.6059 40.9761 25.084 41.7104 26.9756C42.4416 28.8412 43.0852 32.0388 43.6413 36.5683L48.1002 72.8825L32.325 74.8194L27.9189 38.9348C27.481 35.3684 27.097 33.2092 26.7668 32.457C26.4366 31.7048 25.7379 31.3942 24.6706 31.5253C23.5512 31.6627 22.9043 32.2046 22.7298 33.1509C22.5521 34.0711 22.703 36.4836 23.1825 40.3883L27.4831 75.414L11.7079 77.3509L5.34567 25.5349L21.3942 23.5643Z" fill="#111015"/>
<path d="M21.3942 23.5643L23.7615 23.4106L23.5987 20.9035L21.1051 21.2097L21.3942 23.5643ZM21.7058 28.3617L19.3384 28.5155L23.8717 29.3296L21.7058 28.3617ZM25.3613 23.5925L26.7806 25.4935L26.7901 25.4863L25.3613 23.5925ZM41.7104 26.9756L39.4989 27.8341L39.5016 27.8412L41.7104 26.9756ZM48.1002 72.8825L48.3893 75.2371L50.7439 74.948L50.4548 72.5934L48.1002 72.8825ZM32.325 74.8194L29.9703 75.1086L30.2594 77.4632L32.6141 77.1741L32.325 74.8194ZM22.7298 33.1509L25.0591 33.6006L25.061 33.5908L25.0628 33.581L22.7298 33.1509ZM27.4831 75.414L27.7722 77.7686L30.1268 77.4795L29.8377 75.1248L27.4831 75.414ZM11.7079 77.3509L9.35323 77.64L9.64235 79.9947L11.997 79.7056L11.7079 77.3509ZM5.34567 25.5349L5.05656 23.1802L2.70191 23.4693L2.99102 25.824L5.34567 25.5349ZM19.0269 23.7181L19.3384 28.5155L24.0731 28.2079L23.7615 23.4106L19.0269 23.7181ZM23.8717 29.3296C24.6476 27.5934 25.6326 26.3506 26.7805 25.4935L23.942 21.6915C22.0401 23.1115 20.5881 25.0481 19.5399 27.3938L23.8717 29.3296ZM26.7901 25.4863C27.9657 24.5994 29.4143 24.0185 31.213 23.7976L30.6348 19.0883C28.1122 19.3981 25.8524 20.2502 23.9325 21.6987L26.7901 25.4863ZM31.213 23.7976C33.5501 23.5107 35.2991 23.851 36.6254 24.6042L38.9684 20.4783C36.5452 19.1023 33.7122 18.7105 30.6348 19.0883L31.213 23.7976ZM36.6254 24.6042C38.057 25.4172 38.9751 26.4849 39.4989 27.8341L43.922 26.1171C42.9771 23.683 41.2861 21.7945 38.9684 20.4783L36.6254 24.6042ZM39.5016 27.8412C40.1141 29.404 40.732 32.3395 41.2867 36.8574L45.996 36.2792C45.4384 31.7381 44.769 28.2785 43.9192 26.11L39.5016 27.8412ZM41.2867 36.8574L45.7455 73.1716L50.4548 72.5934L45.996 36.2792L41.2867 36.8574ZM47.8111 70.5278L32.0359 72.4648L32.6141 77.1741L48.3893 75.2371L47.8111 70.5278ZM34.6796 74.5303L30.2735 38.6457L25.5642 39.2239L29.9703 75.1086L34.6796 74.5303ZM30.2735 38.6457C30.0522 36.8432 29.8408 35.3646 29.6381 34.2252C29.4503 33.1691 29.2334 32.1741 28.9391 31.5035L24.5945 33.4105C24.5944 33.4103 24.6419 33.5298 24.7205 33.8502C24.7935 34.1476 24.876 34.5457 24.9668 35.056C25.1482 36.0759 25.3477 37.4601 25.5642 39.2239L30.2735 38.6457ZM28.9391 31.5035C28.5557 30.63 27.8904 29.9062 26.9587 29.4921C26.0881 29.1051 25.1769 29.073 24.3815 29.1706L24.9597 33.8799C25.2316 33.8466 25.2034 33.9042 25.0316 33.8278C24.938 33.7862 24.8357 33.7188 24.7456 33.6258C24.6576 33.5349 24.6128 33.4522 24.5945 33.4105L28.9391 31.5035ZM24.3815 29.1706C23.5166 29.2768 22.5969 29.5675 21.8226 30.2161C21.0171 30.8908 20.5693 31.7851 20.3968 32.7207L25.0628 33.581C25.0662 33.5627 25.062 33.5986 25.0262 33.6634C24.9884 33.7318 24.9335 33.7995 24.8692 33.8534C24.7417 33.9602 24.7052 33.9112 24.9597 33.8799L24.3815 29.1706ZM20.4005 32.7011C20.2472 33.4949 20.2677 34.6099 20.342 35.7985C20.4217 37.0717 20.5854 38.7033 20.8278 40.6775L25.5371 40.0992C25.3001 38.1686 25.1487 36.6416 25.0774 35.5023C25.0418 34.9325 25.0277 34.4821 25.0304 34.1399C25.0318 33.9698 25.0373 33.8384 25.0445 33.7407C25.052 33.6391 25.0597 33.5978 25.0591 33.6006L20.4005 32.7011ZM20.8278 40.6775L25.1284 75.7031L29.8377 75.1248L25.5371 40.0992L20.8278 40.6775ZM27.194 73.0593L11.4188 74.9963L11.997 79.7056L27.7722 77.7686L27.194 73.0593ZM14.0625 77.0618L7.70032 25.2457L2.99102 25.824L9.35323 77.64L14.0625 77.0618ZM5.63479 27.8895L21.6833 25.919L21.1051 21.2097L5.05656 23.1802L5.63479 27.8895Z" fill="url(#paint2_linear_72_992)" mask="url(#path-2-outside-1_72_992)"/>
<defs>
<linearGradient id="paint0_linear_72_992" x1="26.5" y1="18" x2="26.5" y2="81.5" gradientUnits="userSpaceOnUse">
<stop stop-color="#6FDBB5"/>
<stop offset="1" stop-color="#45A176"/>
</linearGradient>
<linearGradient id="paint1_linear_72_992" x1="26.5" y1="18" x2="26.5" y2="81.5" gradientUnits="userSpaceOnUse">
<stop stop-color="#6FDBB5"/>
<stop offset="1" stop-color="#45A176"/>
</linearGradient>
<linearGradient id="paint2_linear_72_992" x1="21.3397" y1="2.62004" x2="31.2112" y2="83.0163" gradientUnits="userSpaceOnUse">
<stop stop-color="#6FDBB5"/>
<stop offset="1" stop-color="#45A176"/>
</linearGradient>
</defs>
</svg>
