<svg width="20" height="20" viewBox="0 0 20 20" fill="none" xmlns="http://www.w3.org/2000/svg">
<path d="M7.14809 4.80339C7.53116 4.05919 7.7227 3.68709 7.98001 3.56653C8.20404 3.46156 8.46312 3.46156 8.68715 3.56653C8.94446 3.68709 9.136 4.05919 9.51908 4.80339L10.5121 6.73264C10.5785 6.86157 10.6117 6.92604 10.6546 6.98297C10.6927 7.0335 10.7365 7.07953 10.785 7.12017C10.8397 7.16594 10.9024 7.20237 11.0277 7.27523L13.0164 8.43083C13.668 8.80948 13.9938 8.9988 14.1033 9.24557C14.1989 9.46083 14.1989 9.70648 14.1033 9.92175C13.9938 10.1685 13.668 10.3578 13.0164 10.7365L11.0277 11.8921C10.9024 11.9649 10.8397 12.0014 10.785 12.0472C10.7365 12.0878 10.6927 12.1338 10.6546 12.1843C10.6117 12.2413 10.5785 12.3057 10.5121 12.4347L9.51908 14.3639C9.136 15.1081 8.94446 15.4802 8.68715 15.6008C8.46312 15.7058 8.20404 15.7058 7.98001 15.6008C7.7227 15.4802 7.53116 15.1081 7.14809 14.3639L6.15501 12.4347C6.08865 12.3057 6.05546 12.2413 6.01253 12.1843C5.97443 12.1338 5.93069 12.0878 5.88216 12.0472C5.8275 12.0014 5.76481 11.9649 5.63943 11.8921L3.65078 10.7365C2.99919 10.3578 2.67339 10.1685 2.56385 9.92175C2.4683 9.70648 2.4683 9.46083 2.56385 9.24557C2.67339 8.9988 2.99919 8.80948 3.65078 8.43083L5.63943 7.27523C5.76481 7.20237 5.8275 7.16594 5.88216 7.12017C5.93069 7.07953 5.97443 7.0335 6.01253 6.98297C6.05546 6.92604 6.08865 6.86157 6.15501 6.73264L7.14809 4.80339Z" stroke="#737373" stroke-width="1.5" stroke-linecap="round" stroke-linejoin="round"/>
<path d="M14.5498 4.50546C14.3384 4.24114 14.2327 4.10898 14.193 3.95658C14.1582 3.82253 14.1582 3.67812 14.193 3.54407C14.2327 3.39167 14.3384 3.25951 14.5498 2.99519L15.2295 2.14566C15.4409 1.88134 15.5467 1.74918 15.6686 1.69966C15.7758 1.6561 15.8913 1.6561 15.9986 1.69966C16.1205 1.74918 16.2262 1.88134 16.4377 2.14566L17.1173 2.99519C17.3288 3.25951 17.4345 3.39167 17.4741 3.54407C17.509 3.67812 17.509 3.82253 17.4741 3.95658C17.4345 4.10898 17.3288 4.24114 17.1173 4.50546L16.4377 5.35499C16.2262 5.61931 16.1205 5.75147 15.9986 5.80099C15.8913 5.84455 15.7758 5.84455 15.6686 5.80099C15.5467 5.75147 15.4409 5.61931 15.2295 5.35499L14.5498 4.50546Z" stroke="#737373" stroke-width="1.5" stroke-linecap="round" stroke-linejoin="round"/>
</svg>
