<svg width="20" height="20" viewBox="0 0 20 20" fill="none" xmlns="http://www.w3.org/2000/svg">
<path d="M10 1.66699C10.9137 2.33078 11.732 3.10891 12.4339 3.98082C12.4783 4.03602 12.5004 4.10234 12.5 4.16856M10 6.66699C10.9137 6.0032 11.732 5.22507 12.4339 4.35316C12.4776 4.29884 12.4996 4.23374 12.5 4.16856M10 13.3337C9.08632 13.9974 8.26795 14.7756 7.56612 15.6475C7.52239 15.7018 7.50035 15.7669 7.5 15.8321M10 18.3337C9.08632 17.6699 8.26795 16.8917 7.56612 16.0198C7.52169 15.9646 7.49965 15.8983 7.5 15.8321M12.5 4.16856C12.2493 4.16699 11.9731 4.16699 11.6667 4.16699H8.33333C6.78227 4.16699 6.00673 4.16699 5.3791 4.37092C4.1106 4.78308 3.11609 5.7776 2.70393 7.04609C2.5 7.67372 2.5 8.44926 2.5 10.0003C2.5 11.5514 2.5 12.3269 2.70393 12.9546C2.97256 13.7813 3.48859 14.4917 4.16662 15.0003M7.5 15.8321C7.75074 15.8337 8.0269 15.8337 8.33333 15.8337H11.6667C13.2177 15.8337 13.9933 15.8337 14.6209 15.6297C15.8894 15.2176 16.8839 14.2231 17.2961 12.9546C17.5 12.3269 17.5 11.5514 17.5 10.0003C17.5 8.44926 17.5 7.67372 17.2961 7.04609C17.0274 6.21932 16.5114 5.50894 15.8334 5.00033" stroke="white" stroke-width="1.5" stroke-linecap="round" stroke-linejoin="round"/>
</svg>
