<svg width="20" height="20" viewBox="0 0 20 20" fill="none" xmlns="http://www.w3.org/2000/svg">
<path d="M6.66666 9.99992H6.675M10 9.99992H10.0083M13.3333 9.99992H13.3417M16.8233 13.1141C17.2693 12.1365 17.5001 11.0745 17.5 9.99992C17.4989 8.97091 17.2861 7.95313 16.8748 7.0099C16.4635 6.06667 15.8624 5.21818 15.1091 4.5172C14.3558 3.81622 13.4663 3.27776 12.4959 2.93531C11.5256 2.59286 10.4951 2.45376 9.4687 2.52666C8.44228 2.59955 7.44183 2.88288 6.52961 3.35902C5.61739 3.83517 4.8129 4.49393 4.16621 5.29434C3.51951 6.09474 3.04444 7.01966 2.77055 8.01156C2.49666 9.00345 2.42981 10.0411 2.57416 11.0599C2.71583 12.0633 2.7875 12.5641 2.7975 12.6966C2.81416 12.9108 2.81083 12.8341 2.80916 13.0491C2.80916 13.1824 2.7975 13.3324 2.77583 13.6341L2.64833 15.4283C2.59666 16.1424 2.57166 16.5008 2.69833 16.7674C2.80916 17.0016 2.99833 17.1908 3.2325 17.3016C3.5 17.4283 3.8575 17.4033 4.57166 17.3516L6.36583 17.2241C6.6675 17.2024 6.81833 17.1908 6.95083 17.1908C7.16583 17.1891 7.08916 17.1858 7.30333 17.2024C7.43583 17.2124 7.9375 17.2833 8.94 17.4249C10.5433 17.6539 12.1776 17.3577 13.5986 16.5807C15.0196 15.8036 16.1509 14.5875 16.8233 13.1141Z" stroke="white" stroke-width="1.5" stroke-linecap="round" stroke-linejoin="round"/>
</svg>
