<svg width="20" height="20" viewBox="0 0 20 20" fill="none" xmlns="http://www.w3.org/2000/svg">
<path d="M7.08335 17.0467C4.31933 15.9015 2.375 13.1775 2.375 9.99943C2.375 6.82134 4.31933 4.09737 7.08335 2.95215M12.9166 2.95215C15.6807 4.09737 17.625 6.82134 17.625 9.99943C17.625 13.1775 15.6807 15.9015 12.9166 17.0467M9.99997 4.99943V5.99943M9.99997 5.99943V9.99943M9.99997 5.99943H9.07404C8.05129 5.99943 7.22219 6.89486 7.22219 7.99943C7.22219 9.104 8.05129 9.99943 9.07404 9.99943H9.99997M9.99997 5.99943H10.9842C11.8471 5.99943 12.5722 6.63682 12.7777 7.49943M9.99997 9.99943V13.9994M9.99997 9.99943L10.9259 9.99943C11.9486 9.99943 12.7777 10.8949 12.7777 11.9994C12.7777 13.104 11.9486 13.9994 10.9259 13.9994H9.99997M9.99997 13.9994V14.9994M9.99997 13.9994H9.0157C8.15281 13.9994 7.42777 13.362 7.22219 12.4994" stroke="white" stroke-width="1.5" stroke-linecap="round" stroke-linejoin="round"/>
</svg>
